<svg width="99" height="62" viewBox="0 0 99 62" fill="none" xmlns="http://www.w3.org/2000/svg">
<path d="M13.4856 21.5582V39.9616C13.2038 40.0384 12.8068 40.1025 12.2946 40.1537C11.7823 40.2305 11.2444 40.2689 10.6809 40.2689C9.47706 40.2689 8.63181 40.064 8.14515 39.6542C7.65849 39.2444 7.41516 38.5016 7.41516 37.4258V21.5582H1.38314C1.22946 21.302 1.07577 20.969 0.922092 20.5592C0.794024 20.1494 0.72999 19.7012 0.72999 19.2145C0.72999 18.3436 0.922092 17.7161 1.3063 17.3319C1.6905 16.9221 2.21558 16.7172 2.88154 16.7172H19.6713C19.8506 16.9733 20.0043 17.3063 20.1323 17.7161C20.2604 18.1259 20.3244 18.5742 20.3244 19.0608C20.3244 19.9061 20.1323 20.5336 19.7481 20.9434C19.3639 21.3532 18.8389 21.5582 18.1729 21.5582H13.4856ZM27.6153 39.9616C27.3592 40.0384 27.0006 40.1025 26.5396 40.1537C26.0785 40.2305 25.5662 40.2689 25.0027 40.2689C23.8501 40.2689 23.0177 40.0896 22.5054 39.7311C21.9931 39.3469 21.737 38.6169 21.737 37.5411V25.8228C21.737 25.1057 21.9163 24.4909 22.2749 23.9786C22.6335 23.4664 23.1329 23.0181 23.7733 22.6339C24.6185 22.1217 25.6303 21.7246 26.8085 21.4429C28.0123 21.1355 29.2674 20.9819 30.5737 20.9819C33.2375 20.9819 34.5694 21.8783 34.5694 23.6713C34.5694 24.1067 34.5054 24.5037 34.3773 24.8623C34.2493 25.2209 34.1084 25.5283 33.9547 25.7844C33.3656 25.6563 32.6484 25.5923 31.8032 25.5923C31.0604 25.5923 30.3176 25.682 29.5748 25.8613C28.832 26.0405 28.1788 26.2839 27.6153 26.5912V39.9616ZM43.3398 39.9616C43.0837 40.0384 42.7251 40.1025 42.2641 40.1537C41.803 40.2305 41.2907 40.2689 40.7272 40.2689C39.5746 40.2689 38.7422 40.0896 38.2299 39.7311C37.7432 39.3469 37.4999 38.6169 37.4999 37.5411V21.7503C37.756 21.6734 38.1146 21.5966 38.5757 21.5197C39.0367 21.4429 39.549 21.4045 40.1125 21.4045C41.2651 21.4045 42.0848 21.5966 42.5714 21.9808C43.0837 22.365 43.3398 23.095 43.3398 24.1708V39.9616ZM37.1541 16.2177C37.1541 15.3468 37.4487 14.604 38.0378 13.9893C38.6525 13.3746 39.4465 13.0672 40.4199 13.0672C41.3932 13.0672 42.1744 13.3746 42.7635 13.9893C43.3782 14.604 43.6856 15.3468 43.6856 16.2177C43.6856 17.1142 43.3782 17.8698 42.7635 18.4845C42.1744 19.0992 41.3932 19.4066 40.4199 19.4066C39.4465 19.4066 38.6525 19.0992 38.0378 18.4845C37.4487 17.8698 37.1541 17.1142 37.1541 16.2177ZM57.1103 40.5763C56.4443 40.5763 55.8296 40.5123 55.2661 40.3842C54.7026 40.2818 54.1903 40.1409 53.7293 39.9616V46.8388C53.4731 46.9157 53.1145 46.9925 52.6535 47.0694C52.1925 47.1462 51.6802 47.1846 51.1167 47.1846C49.9641 47.1846 49.1316 46.9925 48.6193 46.6083C48.1071 46.2241 47.8509 45.4941 47.8509 44.4184V25.4002C47.8509 24.7343 47.9918 24.1964 48.2736 23.7865C48.5553 23.3511 48.9523 22.9669 49.4646 22.6339C50.233 22.1473 51.2191 21.7503 52.423 21.4429C53.6268 21.1099 54.9587 20.9434 56.4187 20.9434C57.9043 20.9434 59.2618 21.1355 60.4913 21.5197C61.7464 21.8783 62.8221 22.4546 63.7186 23.2487C64.6151 24.0427 65.3066 25.0544 65.7933 26.2839C66.3056 27.5133 66.5617 28.9733 66.5617 30.6638C66.5617 32.2775 66.3184 33.7118 65.8317 34.9669C65.3707 36.1964 64.7175 37.2337 63.8723 38.079C63.027 38.8986 62.0281 39.5261 60.8755 39.9616C59.7229 40.3714 58.4678 40.5763 57.1103 40.5763ZM56.2266 35.9274C57.6097 35.9274 58.6727 35.492 59.4155 34.6211C60.1839 33.7503 60.5681 32.4312 60.5681 30.6638C60.5681 28.8452 60.1967 27.5389 59.4539 26.7449C58.7367 25.9509 57.725 25.5539 56.4187 25.5539C55.8296 25.5539 55.3173 25.6307 54.8819 25.7844C54.4465 25.9125 54.0494 26.0662 53.6909 26.2455V35.2743C54.0494 35.4792 54.4336 35.6457 54.8435 35.7737C55.2533 35.8762 55.7143 35.9274 56.2266 35.9274ZM79.3221 40.5763C78.6562 40.5763 78.0414 40.5123 77.4779 40.3842C76.9144 40.2818 76.4022 40.1409 75.9411 39.9616V46.8388C75.685 46.9157 75.3264 46.9925 74.8654 47.0694C74.4043 47.1462 73.892 47.1846 73.3285 47.1846C72.1759 47.1846 71.3435 46.9925 70.8312 46.6083C70.3189 46.2241 70.0628 45.4941 70.0628 44.4184V25.4002C70.0628 24.7343 70.2037 24.1964 70.4854 23.7865C70.7672 23.3511 71.1642 22.9669 71.6764 22.6339C72.4449 22.1473 73.431 21.7503 74.6348 21.4429C75.8387 21.1099 77.1706 20.9434 78.6306 20.9434C80.1162 20.9434 81.4737 21.1355 82.7031 21.5197C83.9582 21.8783 85.034 22.4546 85.9305 23.2487C86.8269 24.0427 87.5185 25.0544 88.0052 26.2839C88.5174 27.5133 88.7736 28.9733 88.7736 30.6638C88.7736 32.2775 88.5302 33.7118 88.0436 34.9669C87.5825 36.1964 86.9294 37.2337 86.0841 38.079C85.2389 38.8986 84.24 39.5261 83.0873 39.9616C81.9347 40.3714 80.6797 40.5763 79.3221 40.5763ZM78.4385 35.9274C79.8216 35.9274 80.8846 35.492 81.6274 34.6211C82.3958 33.7503 82.78 32.4312 82.78 30.6638C82.78 28.8452 82.4086 27.5389 81.6658 26.7449C80.9486 25.9509 79.9369 25.5539 78.6306 25.5539C78.0414 25.5539 77.5292 25.6307 77.0937 25.7844C76.6583 25.9125 76.2613 26.0662 75.9027 26.2455V35.2743C76.2613 35.4792 76.6455 35.6457 77.0553 35.7737C77.4651 35.8762 77.9262 35.9274 78.4385 35.9274Z" fill="#221314"/>
<path d="M90.9299 37.1569C90.9299 36.1836 91.2245 35.3639 91.8136 34.698C92.4283 34.032 93.2736 33.699 94.3493 33.699C95.3995 33.699 96.232 34.032 96.8467 34.698C97.4614 35.3639 97.7688 36.1836 97.7688 37.1569C97.7688 38.1302 97.4614 38.9498 96.8467 39.6158C96.232 40.2818 95.3995 40.6147 94.3493 40.6147C93.2736 40.6147 92.4283 40.2818 91.8136 39.6158C91.2245 38.9498 90.9299 38.1302 90.9299 37.1569Z" fill="#FE5B3E"/>
</svg>
