<svg width="42" height="41" viewBox="0 0 42 41" fill="none" xmlns="http://www.w3.org/2000/svg">
<g clip-path="url(#clip0_1_1205)">
<rect opacity="0.5" y="0.474609" width="42" height="40" rx="20" fill="#E2E2EA"/>
<path d="M27.6771 17.5579C28.3021 17.0891 28.8646 16.5266 29.3021 15.8704C28.7396 16.1204 28.0833 16.3079 27.4271 16.3704C28.1146 15.9641 28.6146 15.3391 28.8646 14.5579C28.2396 14.9329 27.5208 15.2141 26.8021 15.3704C26.1771 14.7141 25.3333 14.3391 24.3958 14.3391C22.5833 14.3391 21.1146 15.8079 21.1146 17.6204C21.1146 17.8704 21.1458 18.1204 21.2083 18.3704C18.4896 18.2141 16.0521 16.9016 14.4271 14.9329C14.1458 15.4016 13.9896 15.9641 13.9896 16.5891C13.9896 17.7141 14.5521 18.7141 15.4583 19.3079C14.9271 19.2766 14.3958 19.1516 13.9583 18.9016V18.9329C13.9583 20.5266 15.0833 21.8391 16.5833 22.1516C16.3333 22.2141 16.0208 22.2766 15.7396 22.2766C15.5208 22.2766 15.3333 22.2454 15.1146 22.2141C15.5208 23.5266 16.7396 24.4641 18.1771 24.4954C17.0521 25.3704 15.6458 25.9016 14.1146 25.9016C13.8333 25.9016 13.5833 25.8704 13.3333 25.8391C14.7708 26.7766 16.4896 27.3079 18.3646 27.3079C24.3958 27.3079 27.6771 22.3391 27.6771 17.9954C27.6771 17.8391 27.6771 17.7141 27.6771 17.5579Z" fill="#221314"/>
</g>
<defs>
<clipPath id="clip0_1_1205">
<rect width="42" height="40" fill="white" transform="translate(0 0.474609)"/>
</clipPath>
</defs>
</svg>
