<svg width="120" height="120" viewBox="0 0 120 120" fill="none" xmlns="http://www.w3.org/2000/svg">
<g clip-path="url(#clip0_1_524)">
<path d="M60 120C93.1371 120 120 93.1371 120 60C120 26.8629 93.1371 0 60 0C26.8629 0 0 26.8629 0 60C0 93.1371 26.8629 120 60 120Z" fill="#F0F0F0"/>
<path d="M120 60.0002C120 34.2023 103.718 12.2098 80.8695 3.73218V116.269C103.718 107.791 120 85.7981 120 60.0002Z" fill="#D80027"/>
<path d="M0 60.0002C0 85.7981 16.2827 107.791 39.1305 116.268V3.73218C16.2827 12.2098 0 34.2023 0 60.0002Z" fill="#0052B4"/>
</g>
<defs>
<clipPath id="clip0_1_524">
<rect width="120" height="120" fill="white"/>
</clipPath>
</defs>
</svg>
