<svg width="120" height="120" viewBox="0 0 120 120" fill="none" xmlns="http://www.w3.org/2000/svg">
<g clip-path="url(#clip0_1_538)">
<path d="M59.9991 0V120C93.1374 120 120 93.1371 120 60.0009C120 26.8608 93.1372 0 59.9991 0Z" fill="#252F6B"/>
<path d="M59.9991 0C26.8629 0 0 26.8618 0 59.9999C0 93.1361 26.8629 119.999 59.9991 119.999C93.1371 119.999 93.1371 0 59.9991 0Z" fill="#273375"/>
<path d="M41.1482 91.9761L45.1942 86.9321L38.9436 88.0643L36.7751 82.0095L34.418 88.0643L28.0365 86.9321L32.0921 91.8651L27.8812 96.7925L34.2995 95.7845L36.4642 101.714L38.8223 95.7873L45.3685 96.9572L41.1482 91.9761Z" fill="#F3F4F5"/>
<path d="M88.9734 96.4316L91.2679 93.5732L87.7248 94.2146L86.4961 90.7842L85.1602 94.2146L81.5441 93.5732L83.8424 96.367L81.4569 99.1608L85.0931 98.5887L86.3197 101.947L87.6556 98.5905L91.3655 99.2537L88.9734 96.4316Z" fill="#F3F4F5"/>
<path d="M88.9734 33.2729L91.2679 30.4137L87.7248 31.0559L86.4961 27.6255L85.1602 31.0559L81.5441 30.4137L83.8424 33.2093L81.4569 36.0013L85.0931 35.43L86.3197 38.7903L87.6556 35.4318L91.3655 36.094L88.9734 33.2729Z" fill="#F3F4F5"/>
<path d="M103.817 49.611L106.109 46.7518L102.568 47.3943L101.339 43.9639L100.004 47.3943L96.3856 46.7518L98.6839 49.5477L96.2984 52.3405L99.9346 51.7682L101.161 55.1287L102.497 51.7702L106.207 52.4324L103.817 49.611Z" fill="#F3F4F5"/>
<path d="M76.1335 56.8749L78.4282 54.0165L74.8851 54.659L73.6561 51.2285L72.3205 54.659L68.7052 54.0165L71.0027 56.8103L68.618 59.6041L72.2542 59.0328L73.4811 62.3903L74.8167 59.0349L78.5268 59.6971L76.1335 56.8749Z" fill="#F3F4F5"/>
<path d="M12.6009 23.2344C11.6592 24.4479 10.7602 25.6938 9.91046 26.9774H16.3422L12.6009 23.2344Z" fill="#29337A"/>
<path d="M43.5849 59.9996H49.3648L43.5849 54.2197V59.9996Z" fill="#29337A"/>
<path d="M24.426 11.688C23.0493 12.7036 21.7241 13.7808 20.4405 14.9071L24.426 18.8909V11.688Z" fill="#29337A"/>
<path d="M18.6442 60.0002H24.4259V54.2185L18.6442 60.0002Z" fill="#29337A"/>
<path d="M59.9991 0C54.3054 0 48.8049 0.809919 43.5849 2.2927V18.8906L60.0009 2.47536V0H59.9991Z" fill="#29337A"/>
<path d="M60.0009 54.4682V46.1379H51.6707L60.0009 54.4682Z" fill="#29337A"/>
<path d="M2.47561 59.9998L16.3402 46.1379H1.62845C0.574062 50.5896 0 55.2269 0 59.9998H2.47561Z" fill="#29337A"/>
<path d="M51.6651 26.9776H60.0009V18.6436L51.6651 26.9776Z" fill="#29337A"/>
<path d="M60.0006 56.2181V54.4683L51.6704 46.1381H60.0006V43.1548H46.9373L60.0006 56.2181Z" fill="white"/>
<path d="M16.342 26.9772H9.91029C9.26808 27.9503 8.6578 28.9459 8.07132 29.9577H20.7065L13.207 22.4602C13.0015 22.7161 12.7996 22.9747 12.5997 23.2331L16.342 26.9772Z" fill="white"/>
<path d="M24.4259 54.218V59.9997H27.4074V49.8535L17.262 59.9997H18.6442L24.4259 54.218Z" fill="white"/>
<path d="M43.5847 2.29175C42.5794 2.57701 41.5866 2.8876 40.6041 3.222V23.2551L60.0006 3.85965V2.47744L43.5847 18.8896V2.29175Z" fill="white"/>
<path d="M24.3207 46.1383L24.4258 46.0332L27.303 43.156H2.41464C2.12761 44.1402 1.86515 45.1341 1.62828 46.1383H16.3401L2.47544 60.0001H10.4581L24.3207 46.1383Z" fill="white"/>
<path d="M2.47527 59.9998L16.3399 46.1379L2.47527 59.9998Z" fill="white"/>
<path d="M60.0008 29.959V26.9775H51.665L60.0008 18.6435V10.6628L40.7038 29.959H60.0008Z" fill="white"/>
<path d="M60.0007 18.6436L51.6646 26.9776L60.0007 18.6436Z" fill="white"/>
<path d="M24.4258 18.8912L20.4403 14.9075C19.0269 16.1496 17.67 17.4569 16.3788 18.8269L24.4258 26.8739L24.5111 26.9611L27.4073 29.8572V9.63354C26.3937 10.292 25.3961 10.9712 24.4268 11.6873V18.8912H24.4258Z" fill="white"/>
<path d="M43.5848 54.2198L49.3647 59.9997H56.9797L40.6032 43.6245V59.9997H43.5848V54.2198Z" fill="white"/>
<path d="M24.426 26.8743L24.5114 26.9614L24.426 26.8743Z" fill="#D32030"/>
<path d="M49.9179 46.1382L46.9374 43.1559H60.0007V29.9591H40.7038L40.6042 30.0604V29.9591H40.7038L60.0007 10.6639V3.85978L40.6032 23.2563V3.22314C35.9147 4.82525 31.4904 6.98698 27.4064 9.63486V29.8575L27.5097 29.9588H27.4064V29.8575L24.5102 26.9616L24.5272 26.9786H24.4258V26.8752L16.3788 18.8282C15.2743 19.9974 14.2161 21.2081 13.2071 22.4623L20.7064 29.9599H8.07141C5.68396 34.0753 3.77506 38.4976 2.41464 43.1567H27.303L27.4064 43.0516V43.1567H27.303L24.4258 46.0341V46.1392H24.3207L10.4578 60.0003H17.262L27.4074 49.8539V60.0003H40.6042V43.6249L56.9797 60.0003H59.2316C59.4882 59.7323 59.7499 59.466 60.0017 59.1904V56.2183L49.9179 46.1382Z" fill="#D32030"/>
<path d="M40.6032 23.2566L60.0007 3.86011L40.6032 23.2566Z" fill="#D32030"/>
<path d="M24.4257 46.1379V46.0317L24.3206 46.1379H24.4257Z" fill="#D32030"/>
<path d="M27.4073 43.0498L27.3031 43.1549H27.4073V43.0498Z" fill="#D32030"/>
<path d="M40.6032 30.0603L40.7038 29.959H40.6032V30.0603Z" fill="#D32030"/>
<path d="M24.426 26.9774H24.5284L24.5114 26.9614L24.426 26.8743V26.9774Z" fill="#D32030"/>
<path d="M27.5106 29.9593L27.4075 29.8569V29.9593H27.5106Z" fill="#D32030"/>
</g>
<defs>
<clipPath id="clip0_1_538">
<rect width="120" height="120" fill="white"/>
</clipPath>
</defs>
</svg>
