<svg width="18" height="16" viewBox="0 0 18 16" fill="none" xmlns="http://www.w3.org/2000/svg">
<path d="M13.9321 9.93362C13.7163 10.1428 13.6171 10.4453 13.6663 10.742L14.4071 14.842C14.4696 15.1895 14.3229 15.5411 14.0321 15.742C13.7471 15.9503 13.3679 15.9753 13.0571 15.8086L9.36628 13.8836C9.23794 13.8153 9.09544 13.7786 8.94961 13.7745H8.72378C8.64544 13.7861 8.56878 13.8111 8.49878 13.8495L4.80711 15.7836C4.62461 15.8753 4.41794 15.9078 4.21545 15.8753C3.72211 15.782 3.39294 15.312 3.47378 14.8161L4.21545 10.7161C4.26461 10.417 4.16544 10.1128 3.94961 9.90028L0.940445 6.98362C0.688778 6.73945 0.601278 6.37279 0.716278 6.04195C0.827945 5.71195 1.11294 5.47112 1.45711 5.41695L5.59878 4.81612C5.91378 4.78362 6.19044 4.59195 6.33211 4.30862L8.15711 0.566952C8.20044 0.483618 8.25628 0.406952 8.32378 0.341952L8.39878 0.283618C8.43794 0.240285 8.48294 0.204452 8.53294 0.175285L8.62378 0.141952L8.76544 0.0836182H9.11628C9.42961 0.116118 9.70544 0.303618 9.84961 0.583618L11.6988 4.30862C11.8321 4.58112 12.0913 4.77029 12.3904 4.81612L16.5321 5.41695C16.8821 5.46695 17.1746 5.70862 17.2904 6.04195C17.3996 6.37612 17.3054 6.74278 17.0488 6.98362L13.9321 9.93362Z" fill="#FE5B3E"/>
</svg>
