<svg width="42" height="41" viewBox="0 0 42 41" fill="none" xmlns="http://www.w3.org/2000/svg">
<g clip-path="url(#clip0_1_1200)">
<rect opacity="0.5" y="0.474609" width="42" height="40" rx="20" fill="#E2E2EA"/>
<path d="M28.9583 20.9954C28.9583 20.4954 28.8958 20.1204 28.8333 19.7141H21.4583V22.3704H25.8333C25.6771 23.5266 24.5208 25.7141 21.4583 25.7141C18.8021 25.7141 16.6458 23.5266 16.6458 20.8079C16.6458 16.4641 21.7708 14.4641 24.5208 17.1204L26.6458 15.0891C25.3021 13.8391 23.5208 13.0579 21.4583 13.0579C17.1458 13.0579 13.7083 16.5266 13.7083 20.8079C13.7083 25.1204 17.1458 28.5579 21.4583 28.5579C25.9271 28.5579 28.9583 25.4329 28.9583 20.9954Z" fill="#221314"/>
</g>
<defs>
<clipPath id="clip0_1_1200">
<rect width="42" height="40" fill="white" transform="translate(0 0.474609)"/>
</clipPath>
</defs>
</svg>
