<svg width="120" height="120" viewBox="0 0 120 120" fill="none" xmlns="http://www.w3.org/2000/svg">
<g clip-path="url(#clip0_1_583)">
<path d="M60 120C93.1371 120 120 93.1371 120 60C120 26.8629 93.1371 0 60 0C26.8629 0 0 26.8629 0 60C0 93.1371 26.8629 120 60 120Z" fill="#F0F0F0"/>
<path d="M120 59.9998C120 36.2121 106.157 15.6584 86.0869 5.95337V114.046C106.157 104.341 120 83.7874 120 59.9998Z" fill="#D80027"/>
<path d="M0 59.9998C0 83.7874 13.8434 104.341 33.9131 114.046V5.95337C13.8434 15.6584 0 36.2121 0 59.9998Z" fill="#6DA544"/>
<path d="M44.3477 59.9999C44.3477 68.6443 51.3555 75.6521 60 75.6521C68.6444 75.6521 75.6523 68.6443 75.6523 59.9999V54.7825H44.3477V59.9999Z" fill="#6DA544"/>
<path d="M80.8694 49.5653H65.2171C65.2171 46.6839 62.8811 44.3479 59.9997 44.3479C57.1183 44.3479 54.7823 46.6839 54.7823 49.5653H39.13C39.13 52.447 41.6399 54.7827 44.5211 54.7827H44.3474C44.3474 57.6644 46.6832 60.0002 49.5648 60.0002C49.5648 62.8818 51.9006 65.2176 54.7823 65.2176H65.2171C68.0987 65.2176 70.4345 62.8818 70.4345 60.0002C73.3162 60.0002 75.652 57.6644 75.652 54.7827H75.478C78.3597 54.7827 80.8694 52.447 80.8694 49.5653Z" fill="#FF9811"/>
</g>
<defs>
<clipPath id="clip0_1_583">
<rect width="120" height="120" fill="white"/>
</clipPath>
</defs>
</svg>
