<svg width="40" height="41" viewBox="0 0 40 41" fill="none" xmlns="http://www.w3.org/2000/svg">
<g clip-path="url(#clip0_1_1210)">
<rect opacity="0.5" y="0.474609" width="40" height="40" rx="20" fill="#E2E2EA"/>
<path d="M20.3334 17.2141C18.3334 17.2141 16.7396 18.8391 16.7396 20.8079C16.7396 22.8079 18.3334 24.4016 20.3334 24.4016C22.3021 24.4016 23.9271 22.8079 23.9271 20.8079C23.9271 18.8391 22.3021 17.2141 20.3334 17.2141ZM20.3334 23.1516C19.0521 23.1516 17.9896 22.1204 17.9896 20.8079C17.9896 19.5266 19.0209 18.4954 20.3334 18.4954C21.6146 18.4954 22.6459 19.5266 22.6459 20.8079C22.6459 22.1204 21.6146 23.1516 20.3334 23.1516ZM24.8959 17.0891C24.8959 16.6204 24.5209 16.2454 24.0521 16.2454C23.5834 16.2454 23.2084 16.6204 23.2084 17.0891C23.2084 17.5579 23.5834 17.9329 24.0521 17.9329C24.5209 17.9329 24.8959 17.5579 24.8959 17.0891ZM27.2709 17.9329C27.2084 16.8079 26.9584 15.8079 26.1459 14.9954C25.3334 14.1829 24.3334 13.9329 23.2084 13.8704C22.0521 13.8079 18.5834 13.8079 17.4271 13.8704C16.3021 13.9329 15.3334 14.1829 14.4896 14.9954C13.6771 15.8079 13.4271 16.8079 13.3646 17.9329C13.3021 19.0891 13.3021 22.5579 13.3646 23.7141C13.4271 24.8391 13.6771 25.8079 14.4896 26.6516C15.3334 27.4641 16.3021 27.7141 17.4271 27.7766C18.5834 27.8391 22.0521 27.8391 23.2084 27.7766C24.3334 27.7141 25.3334 27.4641 26.1459 26.6516C26.9584 25.8079 27.2084 24.8391 27.2709 23.7141C27.3334 22.5579 27.3334 19.0891 27.2709 17.9329ZM25.7709 24.9329C25.5521 25.5579 25.0521 26.0266 24.4584 26.2766C23.5209 26.6516 21.3334 26.5579 20.3334 26.5579C19.3021 26.5579 17.1146 26.6516 16.2084 26.2766C15.5834 26.0266 15.1146 25.5579 14.8646 24.9329C14.4896 24.0266 14.5834 21.8391 14.5834 20.8079C14.5834 19.8079 14.4896 17.6204 14.8646 16.6829C15.1146 16.0891 15.5834 15.6204 16.2084 15.3704C17.1146 14.9954 19.3021 15.0891 20.3334 15.0891C21.3334 15.0891 23.5209 14.9954 24.4584 15.3704C25.0521 15.5891 25.5209 16.0891 25.7709 16.6829C26.1459 17.6204 26.0521 19.8079 26.0521 20.8079C26.0521 21.8391 26.1459 24.0266 25.7709 24.9329Z" fill="#221314"/>
</g>
<defs>
<clipPath id="clip0_1_1210">
<rect width="40" height="40" fill="white" transform="translate(0 0.474609)"/>
</clipPath>
</defs>
</svg>
