<svg width="40" height="41" viewBox="0 0 40 41" fill="none" xmlns="http://www.w3.org/2000/svg">
<g clip-path="url(#clip0_1_1215)">
<rect opacity="0.5" y="0.474609" width="40" height="40" rx="20" fill="#E2E2EA"/>
<path d="M26.3334 13.8079H14.3021C13.7709 13.8079 13.3334 14.2766 13.3334 14.8391V26.8079C13.3334 27.3704 13.7709 27.8079 14.3021 27.8079H26.3334C26.8646 27.8079 27.3334 27.3704 27.3334 26.8079V14.8391C27.3334 14.2766 26.8646 13.8079 26.3334 13.8079ZM17.5521 25.8079H15.4896V19.1516H17.5521V25.8079ZM16.5209 18.2141C15.8334 18.2141 15.3021 17.6829 15.3021 17.0266C15.3021 16.3704 15.8334 15.8079 16.5209 15.8079C17.1771 15.8079 17.7084 16.3704 17.7084 17.0266C17.7084 17.6829 17.1771 18.2141 16.5209 18.2141ZM25.3334 25.8079H23.2396V22.5579C23.2396 21.8079 23.2396 20.8079 22.1771 20.8079C21.0834 20.8079 20.9271 21.6516 20.9271 22.5266V25.8079H18.8646V19.1516H20.8334V20.0579H20.8646C21.1459 19.5266 21.8334 18.9641 22.8334 18.9641C24.9271 18.9641 25.3334 20.3704 25.3334 22.1516V25.8079Z" fill="#221314"/>
</g>
<defs>
<clipPath id="clip0_1_1215">
<rect width="40" height="40" fill="white" transform="translate(0 0.474609)"/>
</clipPath>
</defs>
</svg>
